<svg width="296" height="56" viewBox="0 0 296 56" fill="none" xmlns="http://www.w3.org/2000/svg">
<path d="M291.376 21.0208C290.589 20.3815 289.31 19.8406 287.54 19.3981C285.819 18.9556 284.516 18.7343 283.631 18.7343C282.746 18.7343 282.23 18.7343 282.082 18.7343C279.427 18.7835 277.509 19.4719 276.329 20.7995C275.149 22.0779 274.559 23.5285 274.559 25.1512C274.559 26.7738 275.075 28.1506 276.108 29.2815C277.141 30.3633 278.419 31.2238 279.943 31.863C281.517 32.4531 283.189 33.1415 284.959 33.9282C286.778 34.715 288.45 35.5263 289.974 36.3622C291.548 37.149 292.851 38.3291 293.883 39.9026C294.916 41.4269 295.432 43.3446 295.432 45.6556C295.432 47.9667 294.621 49.9335 292.998 51.5562C291.376 53.1788 289.556 54.2606 287.54 54.8015C285.573 55.3424 283.434 55.6128 281.123 55.6128C276.108 55.6128 272.346 54.5065 269.839 52.2938L270.281 51.8512C271.265 52.7855 272.715 53.5476 274.633 54.1377C276.6 54.7277 278.493 55.0228 280.312 55.0228C283.213 55.0228 285.598 54.236 287.467 52.6625C289.384 51.0399 290.343 49.0485 290.343 46.6882C290.343 44.2788 289.63 42.3611 288.204 40.9352C286.778 39.46 285.033 38.3291 282.967 37.5423C280.951 36.7064 278.911 35.8951 276.845 35.1084C274.78 34.2724 273.035 33.1415 271.609 31.7155C270.183 30.2404 269.47 28.544 269.47 26.6263C269.47 24.7086 269.912 23.1597 270.797 21.9796C271.682 20.7503 272.863 19.8898 274.338 19.3981C276.845 18.5622 279.353 18.1442 281.861 18.1442C286.09 18.1442 289.384 18.931 291.744 20.5045L291.376 21.0208Z" fill="black"/>
<path d="M245.556 19.0293V18.4392H247.105V11.0635H252.268V18.4392H263.553V19.0293H252.268V45.8769C252.268 49.073 252.612 51.3841 253.301 52.8101C254.038 54.236 255.538 54.949 257.8 54.949C260.111 54.949 262.447 54.4819 264.807 53.5476L265.028 54.1377C262.57 55.0719 259.742 55.5391 256.546 55.5391C253.399 55.5391 251.039 54.8998 249.465 53.6214C247.892 52.2938 247.105 49.6877 247.105 45.8031V19.0293H245.556Z" fill="black"/>
<path d="M222.133 55.6128C216.97 55.6128 212.766 54.1377 209.521 51.1874C206.276 48.2371 204.653 43.6888 204.653 37.5423C204.653 31.3959 206.325 26.6263 209.668 23.2335C213.061 19.8406 217.339 18.1442 222.502 18.1442C227.714 18.1442 231.943 19.6194 235.188 22.5697C238.434 25.5199 240.056 30.0683 240.056 36.2147C240.056 42.3611 238.36 47.1308 234.967 50.5236C231.623 53.9164 227.345 55.6128 222.133 55.6128ZM222.65 18.7343C218.913 18.7343 215.815 20.4061 213.356 23.7498C210.898 27.0442 209.668 31.6664 209.668 37.6161C209.668 43.5167 210.799 47.8929 213.061 50.7449C215.323 53.5968 218.323 55.0228 222.06 55.0228C225.797 55.0228 228.894 53.3755 231.353 50.081C233.812 46.7374 235.041 42.1153 235.041 36.2147C235.041 30.265 233.91 25.8641 231.648 23.0122C229.386 20.1603 226.387 18.7343 222.65 18.7343Z" fill="black"/>
<path d="M200.479 55.3178C196.152 55.3178 193.423 54.1869 192.292 51.925C192.046 51.4333 191.923 50.9907 191.923 50.5973V0.0737305H197.086V50.081C197.086 51.507 197.356 52.6134 197.897 53.4001C198.487 54.1377 199.077 54.5311 199.667 54.5802L200.479 54.7277H202.765V55.3178H200.479Z" fill="black"/>
<path d="M182.582 6.78565C178.107 5.06466 173.878 4.20416 169.895 4.20416C165.962 4.20416 162.888 5.04007 160.676 6.7119C158.463 8.38373 157.357 10.6948 157.357 13.6451C157.357 17.2346 159.225 20.0128 162.962 21.9796C164.634 22.8155 166.453 23.6023 168.42 24.3398C170.436 25.0282 172.452 25.815 174.468 26.7001C176.484 27.5852 178.328 28.5932 180 29.7241C181.672 30.8551 183.024 32.4285 184.057 34.4446C185.089 36.4114 185.606 38.9438 185.606 42.0415C185.606 45.0902 184.745 47.6963 183.024 49.8598C181.303 52.0233 179.213 53.4985 176.755 54.2852C174.345 55.0228 171.518 55.3916 168.273 55.3916C162.225 55.3916 157.062 53.8919 152.784 50.8924L153.153 50.3023C154.775 51.5808 156.865 52.638 159.422 53.4739C162.028 54.2606 164.683 54.654 167.388 54.654C171.371 54.654 174.763 53.7443 177.566 51.925C180.418 50.0565 181.844 47.3275 181.844 43.738C181.844 39.8043 179.976 36.731 176.239 34.5183C174.567 33.5349 172.723 32.6252 170.707 31.7893C168.74 30.9534 166.748 30.0929 164.732 29.2078C162.716 28.2736 160.872 27.241 159.201 26.11C155.464 23.6514 153.595 20.1603 153.595 15.6365C153.595 12.047 154.8 9.14589 157.209 6.93317C159.619 4.67129 163.233 3.54034 168.051 3.54034C172.919 3.54034 177.861 4.37626 182.877 6.04808L182.582 6.78565Z" fill="black"/>
<path d="M126.856 0V36.731L143.083 18.4393H143.821L131.798 32.0106L147.656 55.3178H142.493L128.848 35.2559L126.856 37.5424V55.3178H121.693V0H126.856Z" fill="black"/>
<path d="M98.6046 55.6128C93.4416 55.6128 89.2374 54.1377 85.9921 51.1874C82.7468 48.2371 81.1241 43.6888 81.1241 37.5423C81.1241 31.3959 82.796 26.6263 86.1396 23.2335C89.5325 19.8406 93.8104 18.1442 98.9734 18.1442C104.186 18.1442 108.414 19.6194 111.66 22.5697C114.905 25.5199 116.528 30.0683 116.528 36.2147C116.528 42.3611 114.831 47.1308 111.438 50.5236C108.095 53.9164 103.817 55.6128 98.6046 55.6128ZM99.1209 18.7343C95.3839 18.7343 92.2861 20.4061 89.8275 23.7498C87.3689 27.0442 86.1396 31.6664 86.1396 37.6161C86.1396 43.5167 87.2706 47.8929 89.5325 50.7449C91.7943 53.5968 94.7938 55.0228 98.5308 55.0228C102.268 55.0228 105.366 53.3755 107.824 50.081C110.283 46.7374 111.512 42.1153 111.512 36.2147C111.512 30.265 110.381 25.8641 108.119 23.0122C105.857 20.1603 102.858 18.7343 99.1209 18.7343Z" fill="black"/>
<path d="M57.3323 55.6128C52.1693 55.6128 47.9651 54.1377 44.7198 51.1874C41.4745 48.2371 39.8519 43.6888 39.8519 37.5423C39.8519 31.3959 41.5237 26.6263 44.8674 23.2335C48.2602 19.8406 52.5381 18.1442 57.7011 18.1442C62.9133 18.1442 67.142 19.6194 70.3873 22.5697C73.6326 25.5199 75.2553 30.0683 75.2553 36.2147C75.2553 42.3611 73.5589 47.1308 70.166 50.5236C66.8224 53.9164 62.5445 55.6128 57.3323 55.6128ZM57.8486 18.7343C54.1116 18.7343 51.0138 20.4061 48.5552 23.7498C46.0966 27.0442 44.8674 31.6664 44.8674 37.6161C44.8674 43.5167 45.9983 47.8929 48.2602 50.7449C50.5221 53.5968 53.5215 55.0228 57.2585 55.0228C60.9956 55.0228 64.0934 53.3755 66.5519 50.081C69.0105 46.7374 70.2398 42.1153 70.2398 36.2147C70.2398 30.265 69.1089 25.8641 66.847 23.0122C64.5851 20.1603 61.5856 18.7343 57.8486 18.7343Z" fill="black"/>
<path d="M0 4.27792C5.70388 3.88455 10.744 3.68787 15.1202 3.68787C27.2655 3.68787 33.3382 7.74451 33.3382 15.8578C33.3382 18.9064 32.4531 21.5371 30.683 23.7498C28.9128 25.9133 26.0854 27.3885 22.2009 28.1752C25.9379 28.6178 28.8882 29.7487 31.0517 31.5681C33.2153 33.3874 34.2971 36.559 34.2971 41.0827C34.2971 50.5728 28.2244 55.3178 16.079 55.3178H0V4.27792ZM6.12184 54.5803H16.079C20.4553 54.5803 23.5531 53.4493 25.3724 51.1874C27.241 48.8764 28.1752 45.3606 28.1752 40.6402C28.1752 35.9197 27.241 32.7728 25.3724 31.1993C23.5039 29.6258 20.7257 28.7899 17.0379 28.6915H6.12184V54.5803ZM15.1202 4.42544C12.2683 4.42544 9.26881 4.59754 6.12184 4.94174V27.954H17.0379C23.9711 27.6589 27.4376 23.676 27.4376 16.0053C27.4376 12.2683 26.405 9.41634 24.3398 7.44948C22.2746 5.43345 19.2014 4.42544 15.1202 4.42544Z" fill="black"/>
</svg>
